<mxfile host="65bd71144e">
    <diagram id="_XYcsibDkJKaTwn_G-fV" name="Page-1">
        <mxGraphModel dx="495" dy="388" grid="1" gridSize="10" guides="1" tooltips="1" connect="1" arrows="1" fold="1" page="1" pageScale="1" pageWidth="850" pageHeight="1100" math="0" shadow="0">
            <root>
                <mxCell id="0"/>
                <mxCell id="1" parent="0"/>
                <mxCell id="115" style="edgeStyle=none;html=1;exitX=1;exitY=0.5;exitDx=0;exitDy=0;" parent="1" source="4" edge="1">
                    <mxGeometry relative="1" as="geometry">
                        <mxPoint x="320" y="320" as="targetPoint"/>
                    </mxGeometry>
                </mxCell>
                <mxCell id="4" value="Start" style="ellipse;whiteSpace=wrap;html=1;" parent="1" vertex="1">
                    <mxGeometry x="170" y="280" width="120" height="80" as="geometry"/>
                </mxCell>
                <mxCell id="18" value="Display restaurants" style="strokeWidth=2;html=1;shape=mxgraph.flowchart.display;whiteSpace=wrap;" parent="1" vertex="1">
                    <mxGeometry x="350" y="450" width="100" height="60" as="geometry"/>
                </mxCell>
                <mxCell id="21" value="Display Cuisines" style="strokeWidth=2;html=1;shape=mxgraph.flowchart.display;whiteSpace=wrap;" parent="1" vertex="1">
                    <mxGeometry x="350" y="620" width="100" height="60" as="geometry"/>
                </mxCell>
                <mxCell id="60" style="edgeStyle=none;html=1;exitX=0.5;exitY=1;exitDx=0;exitDy=0;entryX=0.5;entryY=0;entryDx=0;entryDy=0;" parent="1" source="58" edge="1">
                    <mxGeometry relative="1" as="geometry">
                        <mxPoint x="570" y="410" as="targetPoint"/>
                    </mxGeometry>
                </mxCell>
                <mxCell id="121" style="edgeStyle=none;html=1;exitX=1;exitY=0.5;exitDx=0;exitDy=0;entryX=0;entryY=0.5;entryDx=0;entryDy=0;" parent="1" source="58" target="64" edge="1">
                    <mxGeometry relative="1" as="geometry"/>
                </mxCell>
                <mxCell id="58" value="Is user?" style="rhombus;whiteSpace=wrap;html=1;" parent="1" vertex="1">
                    <mxGeometry x="530" y="280" width="80" height="80" as="geometry"/>
                </mxCell>
                <mxCell id="74" style="edgeStyle=none;html=1;exitX=0;exitY=1;exitDx=0;exitDy=0;entryX=0;entryY=0.5;entryDx=0;entryDy=0;" parent="1" target="73" edge="1">
                    <mxGeometry relative="1" as="geometry">
                        <mxPoint x="510" y="470" as="sourcePoint"/>
                        <Array as="points">
                            <mxPoint x="510" y="540"/>
                        </Array>
                    </mxGeometry>
                </mxCell>
                <mxCell id="76" style="edgeStyle=none;html=1;exitX=0;exitY=1;exitDx=0;exitDy=0;entryX=0;entryY=0.5;entryDx=0;entryDy=0;" parent="1" target="75" edge="1">
                    <mxGeometry relative="1" as="geometry">
                        <mxPoint x="510" y="470" as="sourcePoint"/>
                        <Array as="points">
                            <mxPoint x="510" y="620"/>
                        </Array>
                    </mxGeometry>
                </mxCell>
                <mxCell id="79" style="edgeStyle=none;html=1;exitX=0;exitY=1;exitDx=0;exitDy=0;entryX=0;entryY=0.5;entryDx=0;entryDy=0;" parent="1" target="77" edge="1">
                    <mxGeometry relative="1" as="geometry">
                        <mxPoint x="510" y="470" as="sourcePoint"/>
                        <Array as="points">
                            <mxPoint x="510" y="700"/>
                        </Array>
                    </mxGeometry>
                </mxCell>
                <mxCell id="81" style="edgeStyle=none;html=1;exitX=0;exitY=1;exitDx=0;exitDy=0;entryX=0;entryY=0.5;entryDx=0;entryDy=0;" parent="1" target="80" edge="1">
                    <mxGeometry relative="1" as="geometry">
                        <mxPoint x="510" y="470" as="sourcePoint"/>
                        <Array as="points">
                            <mxPoint x="510" y="780"/>
                        </Array>
                    </mxGeometry>
                </mxCell>
                <mxCell id="63" value="Inherit the Processes of the Guest" style="text;html=1;strokeColor=none;fillColor=none;align=center;verticalAlign=middle;whiteSpace=wrap;rounded=0;" parent="1" vertex="1">
                    <mxGeometry x="580" y="370" width="170" height="30" as="geometry"/>
                </mxCell>
                <mxCell id="66" style="edgeStyle=none;html=1;exitX=0.5;exitY=1;exitDx=0;exitDy=0;entryX=0.5;entryY=0;entryDx=0;entryDy=0;" parent="1" source="64" edge="1">
                    <mxGeometry relative="1" as="geometry">
                        <mxPoint x="780.0000000000002" y="530" as="targetPoint"/>
                    </mxGeometry>
                </mxCell>
                <mxCell id="64" value="Is admin?" style="rhombus;whiteSpace=wrap;html=1;" parent="1" vertex="1">
                    <mxGeometry x="740" y="280" width="80" height="80" as="geometry"/>
                </mxCell>
                <mxCell id="84" style="edgeStyle=none;html=1;exitX=0;exitY=1;exitDx=0;exitDy=0;entryX=0;entryY=0.5;entryDx=0;entryDy=0;" parent="1" target="83" edge="1">
                    <mxGeometry relative="1" as="geometry">
                        <mxPoint x="720" y="590" as="sourcePoint"/>
                        <Array as="points">
                            <mxPoint x="720" y="650"/>
                        </Array>
                    </mxGeometry>
                </mxCell>
                <mxCell id="86" style="edgeStyle=none;html=1;exitX=0;exitY=1;exitDx=0;exitDy=0;entryX=0;entryY=0.5;entryDx=0;entryDy=0;" parent="1" target="85" edge="1">
                    <mxGeometry relative="1" as="geometry">
                        <mxPoint x="720" y="590" as="sourcePoint"/>
                        <Array as="points">
                            <mxPoint x="720" y="740"/>
                        </Array>
                    </mxGeometry>
                </mxCell>
                <mxCell id="88" style="edgeStyle=none;html=1;exitX=0;exitY=1;exitDx=0;exitDy=0;entryX=0;entryY=0.5;entryDx=0;entryDy=0;" parent="1" target="87" edge="1">
                    <mxGeometry relative="1" as="geometry">
                        <mxPoint x="720" y="590" as="sourcePoint"/>
                        <Array as="points">
                            <mxPoint x="720" y="830"/>
                        </Array>
                    </mxGeometry>
                </mxCell>
                <mxCell id="90" style="edgeStyle=none;html=1;exitX=0;exitY=1;exitDx=0;exitDy=0;entryX=0;entryY=0.5;entryDx=0;entryDy=0;" parent="1" target="89" edge="1">
                    <mxGeometry relative="1" as="geometry">
                        <mxPoint x="720" y="590" as="sourcePoint"/>
                        <Array as="points">
                            <mxPoint x="720" y="910"/>
                        </Array>
                    </mxGeometry>
                </mxCell>
                <mxCell id="68" value="Inherit the Processes of the User" style="text;html=1;strokeColor=none;fillColor=none;align=center;verticalAlign=middle;whiteSpace=wrap;rounded=0;" parent="1" vertex="1">
                    <mxGeometry x="780" y="430" width="170" height="30" as="geometry"/>
                </mxCell>
                <mxCell id="71" value="Log data" style="text;html=1;strokeColor=none;fillColor=none;align=center;verticalAlign=middle;whiteSpace=wrap;rounded=0;" parent="1" vertex="1">
                    <mxGeometry x="650" y="320" width="60" height="30" as="geometry"/>
                </mxCell>
                <mxCell id="73" value="Make reservation" style="rounded=0;whiteSpace=wrap;html=1;" parent="1" vertex="1">
                    <mxGeometry x="530" y="510" width="120" height="60" as="geometry"/>
                </mxCell>
                <mxCell id="75" value="Add, update or delete Comment" style="rounded=0;whiteSpace=wrap;html=1;" parent="1" vertex="1">
                    <mxGeometry x="530" y="590" width="120" height="60" as="geometry"/>
                </mxCell>
                <mxCell id="77" value="Edit Accounts information(comments + reservation)" style="rounded=0;whiteSpace=wrap;html=1;" parent="1" vertex="1">
                    <mxGeometry x="530" y="670" width="120" height="60" as="geometry"/>
                </mxCell>
                <mxCell id="80" value="Log Out" style="rounded=0;whiteSpace=wrap;html=1;" parent="1" vertex="1">
                    <mxGeometry x="530" y="750" width="120" height="60" as="geometry"/>
                </mxCell>
                <mxCell id="83" value="Add, Update, Delete Restaurant Data(CUISINES)" style="rounded=0;whiteSpace=wrap;html=1;" parent="1" vertex="1">
                    <mxGeometry x="740" y="620" width="120" height="60" as="geometry"/>
                </mxCell>
                <mxCell id="85" value="Update, Delete Users" style="rounded=0;whiteSpace=wrap;html=1;" parent="1" vertex="1">
                    <mxGeometry x="740" y="710" width="120" height="60" as="geometry"/>
                </mxCell>
                <mxCell id="87" value="Delete Reservation" style="rounded=0;whiteSpace=wrap;html=1;" parent="1" vertex="1">
                    <mxGeometry x="740" y="800" width="120" height="60" as="geometry"/>
                </mxCell>
                <mxCell id="89" value="Delete Comments" style="rounded=0;whiteSpace=wrap;html=1;" parent="1" vertex="1">
                    <mxGeometry x="740" y="880" width="120" height="60" as="geometry"/>
                </mxCell>
                <mxCell id="119" style="edgeStyle=none;html=1;exitX=0.5;exitY=1;exitDx=0;exitDy=0;entryX=0.5;entryY=0;entryDx=0;entryDy=0;" parent="1" source="91" target="58" edge="1">
                    <mxGeometry relative="1" as="geometry"/>
                </mxCell>
                <mxCell id="91" value="Login" style="rounded=0;whiteSpace=wrap;html=1;" parent="1" vertex="1">
                    <mxGeometry x="510" y="150" width="120" height="60" as="geometry"/>
                </mxCell>
                <mxCell id="107" style="edgeStyle=none;html=1;exitX=0;exitY=1;exitDx=0;exitDy=0;entryX=0;entryY=0.5;entryDx=0;entryDy=0;" parent="1" target="98" edge="1">
                    <mxGeometry relative="1" as="geometry">
                        <Array as="points">
                            <mxPoint x="320" y="925"/>
                        </Array>
                        <mxPoint x="320.0000000000001" y="350" as="sourcePoint"/>
                    </mxGeometry>
                </mxCell>
                <mxCell id="109" style="edgeStyle=none;html=1;exitX=0.75;exitY=0;exitDx=0;exitDy=0;entryX=0;entryY=0.75;entryDx=0;entryDy=0;" parent="1" target="91" edge="1">
                    <mxGeometry relative="1" as="geometry">
                        <Array as="points">
                            <mxPoint x="418" y="270"/>
                            <mxPoint x="418" y="250"/>
                            <mxPoint x="480" y="195"/>
                        </Array>
                        <mxPoint x="417.5" y="290" as="sourcePoint"/>
                    </mxGeometry>
                </mxCell>
                <mxCell id="116" style="edgeStyle=none;html=1;exitX=0.5;exitY=0;exitDx=0;exitDy=0;entryX=0;entryY=0.5;entryDx=0;entryDy=0;" parent="1" target="113" edge="1">
                    <mxGeometry relative="1" as="geometry">
                        <Array as="points">
                            <mxPoint x="385" y="90"/>
                        </Array>
                        <mxPoint x="385.0000000000001" y="290" as="sourcePoint"/>
                    </mxGeometry>
                </mxCell>
                <mxCell id="128" style="edgeStyle=none;html=1;exitX=0;exitY=1;exitDx=0;exitDy=0;entryX=0;entryY=0.5;entryDx=0;entryDy=0;" parent="1" target="126" edge="1">
                    <mxGeometry relative="1" as="geometry">
                        <mxPoint x="320.0000000000001" y="350" as="sourcePoint"/>
                        <Array as="points">
                            <mxPoint x="320" y="580"/>
                            <mxPoint x="320" y="750"/>
                        </Array>
                    </mxGeometry>
                </mxCell>
                <mxCell id="134" style="edgeStyle=none;html=1;exitX=0;exitY=1;exitDx=0;exitDy=0;entryX=0;entryY=0.5;entryDx=0;entryDy=0;" parent="1" target="130" edge="1">
                    <mxGeometry relative="1" as="geometry">
                        <mxPoint x="320.0000000000001" y="350" as="sourcePoint"/>
                        <Array as="points">
                            <mxPoint x="320" y="400"/>
                        </Array>
                    </mxGeometry>
                </mxCell>
                <mxCell id="135" style="edgeStyle=none;html=1;exitX=0;exitY=1;exitDx=0;exitDy=0;entryX=0;entryY=0.5;entryDx=0;entryDy=0;" parent="1" target="129" edge="1">
                    <mxGeometry relative="1" as="geometry">
                        <mxPoint x="320.0000000000001" y="350" as="sourcePoint"/>
                        <Array as="points">
                            <mxPoint x="320" y="570"/>
                        </Array>
                    </mxGeometry>
                </mxCell>
                <mxCell id="96" value="Display Reservation" style="strokeWidth=2;html=1;shape=mxgraph.flowchart.display;whiteSpace=wrap;" parent="1" vertex="1">
                    <mxGeometry x="350" y="820" width="100" height="60" as="geometry"/>
                </mxCell>
                <mxCell id="100" style="edgeStyle=none;html=1;entryX=0.5;entryY=0;entryDx=0;entryDy=0;" parent="1" source="98" target="99" edge="1">
                    <mxGeometry relative="1" as="geometry"/>
                </mxCell>
                <mxCell id="98" value="Exit?" style="shape=rhombus;html=1;dashed=0;whitespace=wrap;perimeter=rhombusPerimeter;" parent="1" vertex="1">
                    <mxGeometry x="520" y="900" width="60" height="50" as="geometry"/>
                </mxCell>
                <mxCell id="99" value="End" style="ellipse;whiteSpace=wrap;html=1;" parent="1" vertex="1">
                    <mxGeometry x="490" y="1000" width="120" height="80" as="geometry"/>
                </mxCell>
                <mxCell id="105" value="" style="endArrow=classic;html=1;entryX=1;entryY=0.5;entryDx=0;entryDy=0;exitX=0.039;exitY=1.01;exitDx=0;exitDy=0;exitPerimeter=0;" parent="1" target="98" edge="1">
                    <mxGeometry width="50" height="50" relative="1" as="geometry">
                        <mxPoint x="720.655" y="590.5999999999999" as="sourcePoint"/>
                        <mxPoint x="640" y="850" as="targetPoint"/>
                        <Array as="points">
                            <mxPoint x="720" y="925"/>
                        </Array>
                    </mxGeometry>
                </mxCell>
                <mxCell id="106" value="" style="endArrow=classic;html=1;exitX=0.04;exitY=1.021;exitDx=0;exitDy=0;exitPerimeter=0;entryX=0.5;entryY=0;entryDx=0;entryDy=0;" parent="1" target="98" edge="1">
                    <mxGeometry width="50" height="50" relative="1" as="geometry">
                        <mxPoint x="510.79999999999995" y="471.2599999999999" as="sourcePoint"/>
                        <mxPoint x="490" y="520" as="targetPoint"/>
                        <Array as="points">
                            <mxPoint x="510" y="860"/>
                            <mxPoint x="550" y="860"/>
                        </Array>
                    </mxGeometry>
                </mxCell>
                <mxCell id="112" value="Carry log data" style="text;html=1;strokeColor=none;fillColor=none;align=center;verticalAlign=middle;whiteSpace=wrap;rounded=0;" parent="1" vertex="1">
                    <mxGeometry x="600" y="230" width="60" height="30" as="geometry"/>
                </mxCell>
                <mxCell id="118" style="edgeStyle=none;html=1;exitX=0.5;exitY=1;exitDx=0;exitDy=0;entryX=0.5;entryY=0;entryDx=0;entryDy=0;" parent="1" source="113" target="91" edge="1">
                    <mxGeometry relative="1" as="geometry"/>
                </mxCell>
                <mxCell id="113" value="Register" style="rounded=0;whiteSpace=wrap;html=1;" parent="1" vertex="1">
                    <mxGeometry x="510" y="60" width="120" height="60" as="geometry"/>
                </mxCell>
                <mxCell id="123" value="Yes" style="text;html=1;strokeColor=none;fillColor=none;align=center;verticalAlign=middle;whiteSpace=wrap;rounded=0;" parent="1" vertex="1">
                    <mxGeometry x="520" y="370" width="60" height="30" as="geometry"/>
                </mxCell>
                <mxCell id="124" value="No" style="text;html=1;strokeColor=none;fillColor=none;align=center;verticalAlign=middle;whiteSpace=wrap;rounded=0;" parent="1" vertex="1">
                    <mxGeometry x="610" y="290" width="60" height="30" as="geometry"/>
                </mxCell>
                <mxCell id="125" value="Yes" style="text;html=1;strokeColor=none;fillColor=none;align=center;verticalAlign=middle;whiteSpace=wrap;rounded=0;" parent="1" vertex="1">
                    <mxGeometry x="780" y="370" width="60" height="30" as="geometry"/>
                </mxCell>
                <mxCell id="132" style="edgeStyle=none;html=1;exitX=0.5;exitY=1;exitDx=0;exitDy=0;entryX=0.5;entryY=0;entryDx=0;entryDy=0;entryPerimeter=0;" parent="1" source="126" target="96" edge="1">
                    <mxGeometry relative="1" as="geometry"/>
                </mxCell>
                <mxCell id="126" value="Search Available reservation" style="rounded=0;whiteSpace=wrap;html=1;" parent="1" vertex="1">
                    <mxGeometry x="340" y="720" width="120" height="60" as="geometry"/>
                </mxCell>
                <mxCell id="133" style="edgeStyle=none;html=1;exitX=0.5;exitY=1;exitDx=0;exitDy=0;entryX=0.5;entryY=0;entryDx=0;entryDy=0;entryPerimeter=0;" parent="1" source="129" target="21" edge="1">
                    <mxGeometry relative="1" as="geometry"/>
                </mxCell>
                <mxCell id="129" value="Search Cuisine" style="rounded=0;whiteSpace=wrap;html=1;" parent="1" vertex="1">
                    <mxGeometry x="340" y="540" width="120" height="60" as="geometry"/>
                </mxCell>
                <mxCell id="131" style="edgeStyle=none;html=1;exitX=0.5;exitY=1;exitDx=0;exitDy=0;entryX=0.5;entryY=0;entryDx=0;entryDy=0;entryPerimeter=0;" parent="1" source="130" target="18" edge="1">
                    <mxGeometry relative="1" as="geometry"/>
                </mxCell>
                <mxCell id="130" value="Search Restaurant" style="rounded=0;whiteSpace=wrap;html=1;" parent="1" vertex="1">
                    <mxGeometry x="340" y="370" width="120" height="60" as="geometry"/>
                </mxCell>
                <mxCell id="136" value="Guest" style="rounded=0;whiteSpace=wrap;html=1;" parent="1" vertex="1">
                    <mxGeometry x="320" y="290" width="140" height="60" as="geometry"/>
                </mxCell>
                <mxCell id="137" value="User" style="rounded=0;whiteSpace=wrap;html=1;" parent="1" vertex="1">
                    <mxGeometry x="510" y="410" width="140" height="60" as="geometry"/>
                </mxCell>
                <mxCell id="138" value="Admin" style="rounded=0;whiteSpace=wrap;html=1;" parent="1" vertex="1">
                    <mxGeometry x="720" y="530" width="140" height="60" as="geometry"/>
                </mxCell>
            </root>
        </mxGraphModel>
    </diagram>
</mxfile>